<svg width="22" height="19" viewBox="0 0 22 19" fill="none" xmlns="http://www.w3.org/2000/svg">
<path d="M5.28065 10.839L5.76743 10.7248L5.28065 10.839ZM5.28065 5.9883L5.76743 6.10249L5.28065 5.9883ZM19.035 5.98831L19.5217 5.87412L19.035 5.98831ZM19.035 10.839L19.5217 10.9532L19.035 10.839ZM14.5832 15.2908L14.469 14.804L14.5832 15.2908ZM9.73245 15.2908L9.61826 15.7776L9.73245 15.2908ZM9.73245 1.53651L9.61826 1.04972L9.73245 1.53651ZM14.5832 1.53651L14.6973 1.04972L14.5832 1.53651ZM20.6464 17.6094C20.8417 17.8047 21.1583 17.8047 21.3536 17.6094C21.5488 17.4142 21.5488 17.0976 21.3536 16.9023L20.6464 17.6094ZM5.76743 10.7248C5.41086 9.20468 5.41086 7.62264 5.76743 6.10249L4.79386 5.87412C4.40205 7.54448 4.40205 9.28284 4.79386 10.9532L5.76743 10.7248ZM18.5482 6.10249C18.9047 7.62264 18.9047 9.20468 18.5482 10.7248L19.5217 10.9532C19.9136 9.28284 19.9136 7.54448 19.5217 5.87412L18.5482 6.10249ZM14.469 14.804C12.9488 15.1606 11.3668 15.1606 9.84663 14.804L9.61826 15.7776C11.2886 16.1694 13.027 16.1694 14.6973 15.7776L14.469 14.804ZM9.84663 2.02329C11.3668 1.66671 12.9488 1.66671 14.469 2.02329L14.6973 1.04972C13.027 0.657906 11.2886 0.657906 9.61826 1.04972L9.84663 2.02329ZM9.84663 14.804C7.8226 14.3293 6.24221 12.7489 5.76743 10.7248L4.79386 10.9532C5.35537 13.347 7.22447 15.2161 9.61826 15.7776L9.84663 14.804ZM14.6973 15.7776C17.0911 15.2161 18.9602 13.347 19.5217 10.9532L18.5482 10.7248C18.0734 12.7489 16.493 14.3293 14.469 14.804L14.6973 15.7776ZM14.469 2.02329C16.493 2.49807 18.0734 4.07845 18.5482 6.10249L19.5217 5.87412C18.9602 3.48032 17.0911 1.61123 14.6973 1.04972L14.469 2.02329ZM9.61826 1.04972C7.22447 1.61123 5.35537 3.48032 4.79386 5.87412L5.76743 6.10249C6.24221 4.07845 7.82259 2.49807 9.84663 2.02329L9.61826 1.04972ZM17.3888 14.3518L20.6464 17.6094L21.3536 16.9023L18.0959 13.6447L17.3888 14.3518Z" fill="#707070"/>
</svg>